<?xml version="1.0" encoding="UTF-8" standalone="no"?>
<!-- Created with Inkscape (http://www.inkscape.org/) -->

<svg
   width="20.377949"
   height="28.529652"
   viewBox="0 0 5.3916655 7.5484702"
   version="1.1"
   id="svg1"
   xml:space="preserve"
   xmlns="http://www.w3.org/2000/svg"
   xmlns:svg="http://www.w3.org/2000/svg"><defs
     id="defs1" /><g
     id="layer1"
     transform="translate(-14.481699,-10.03905)"><g
       style="fill:#cb7200;fill-opacity:1"
       id="g4"
       transform="matrix(0.26458333,0,0,0.26458333,14.531699,10.08905)"><path
         d="m 10,0 c 5.5228,0 10,4.47715 10,10 0,2.2519 -0.7449,4.3294 -2.001,6.001 L 10,28 2,16.001 C 0.744178,14.3295 0,12.2517 0,10 0,4.47715 4.47715,0 10,0 Z"
         fill="#aa4141"
         id="path3"
         style="fill:#cb7200;fill-opacity:1;stroke:#c2c2c2;stroke-width:0.377953;stroke-dasharray:none;stroke-opacity:1" /><path
         d="m 17.131435,13.599198 v -1.809299 c 0,0 -0.247816,-0.207435 -0.599257,-0.207435 -0.351442,0 -0.599258,0.184387 -0.599258,0.184387 v 1.832347 c 0,0 0.247816,-0.178672 0.599258,-0.178672 0.351441,0 0.599257,0.178672 0.599257,0.178672 z m 1.29071,0 v -1.809299 c 0,0 -0.247816,-0.207435 -0.599258,-0.207435 -0.351442,0 -0.599258,0.184387 -0.599258,0.184387 v 1.832347 c 0,0 0.247816,-0.178672 0.599258,-0.178672 0.351442,0 0.599258,0.178672 0.599258,0.178672 z m 0.184387,-1.64796 h -0.09219 v 1.751677 h -1.106323 v 0.09219 h -0.460968 v -0.09219 h -1.106325 v -1.751677 h -0.09219 v 1.843871 h 1.106322 v 0.09219 h 0.651071 l -0.0057,-0.09219 h 1.106323 z"
         id="path11"
         style="fill:#ffffff;stroke-width:0.0921936"
         transform="matrix(3.7795276,0,0,3.7795276,-54.922958,-38.131843)" /></g></g></svg>
