<?xml version="1.0" encoding="UTF-8" standalone="no"?>
<!-- Created with Inkscape (http://www.inkscape.org/) -->

<svg
   width="20.377953"
   height="28.529655"
   viewBox="0 0 5.3916666 7.5484712"
   version="1.1"
   id="svg1"
   xml:space="preserve"
   xmlns="http://www.w3.org/2000/svg"
   xmlns:svg="http://www.w3.org/2000/svg"><defs
     id="defs1" /><g
     id="layer1"
     transform="translate(-14.291701,-18.113949)"><g
       style="fill:#cb7200;fill-opacity:1"
       id="g9"
       transform="matrix(0.26458333,0,0,0.26458333,14.341701,18.163949)"><path
         d="m 10,0 c 5.5228,0 10,4.47715 10,10 0,2.2519 -0.7449,4.3294 -2.001,6.001 L 10,28 2,16.001 C 0.744178,14.3295 0,12.2517 0,10 0,4.47715 4.47715,0 10,0 Z"
         fill="#aa4141"
         id="path8"
         style="fill:#cb7200;fill-opacity:1;stroke:#c2c2c2;stroke-width:0.377953;stroke-dasharray:none;stroke-opacity:1" /><path
         d="M 17.814357,20.148324 H 17.318264 V 19.65223 c 0,-0.09131 -0.07405,-0.165364 -0.165365,-0.165364 H 16.82217 c -0.09131,0 -0.165365,0.07405 -0.165365,0.165364 v 0.496094 h -0.496094 c -0.09131,0 -0.165365,0.07405 -0.165365,0.165365 v 0.330729 c 0,0.09131 0.07405,0.165364 0.165365,0.165364 h 0.496094 v 1.157552 c 0,0.09131 0.07405,0.165365 0.165365,0.165365 h 0.330729 c 0.09131,0 0.165365,-0.07405 0.165365,-0.165365 v -1.157552 h 0.496093 c 0.09131,0 0.165365,-0.07405 0.165365,-0.165364 v -0.330729 c 0,-0.09131 -0.07405,-0.165365 -0.165365,-0.165365 z"
         fill="#000000"
         id="path14"
         style="fill:#ffffff;stroke-width:0.264583"
         transform="matrix(3.7795276,0,0,3.7795276,-54.204855,-68.651147)" /></g></g></svg>
