<?xml version="1.0" encoding="UTF-8" standalone="no"?>
<!-- Created with Inkscape (http://www.inkscape.org/) -->

<svg
   width="20.377953"
   height="28.529652"
   viewBox="0 0 5.3916666 7.5484702"
   version="1.1"
   id="svg1"
   xml:space="preserve"
   xmlns="http://www.w3.org/2000/svg"
   xmlns:svg="http://www.w3.org/2000/svg"><defs
     id="defs1" /><g
     id="layer1"
     transform="translate(-1.4985283,-10.03905)"><g
       style="fill:#a7007b;fill-opacity:1"
       id="g6"
       transform="matrix(0.26458333,0,0,0.26458333,1.5485282,10.08905)"><path
         d="m 10,0 c 5.5228,0 10,4.47715 10,10 0,2.2519 -0.7449,4.3294 -2.001,6.001 L 10,28 2,16.001 C 0.744178,14.3295 0,12.2517 0,10 0,4.47715 4.47715,0 10,0 Z"
         fill="#aa4141"
         id="path1-2"
         style="fill:#a7007b;fill-opacity:1;stroke:#c2c2c2;stroke-width:0.377953;stroke-dasharray:none;stroke-opacity:1" /><path
         d="m 4.1482648,13.599198 v -1.809299 c 0,0 -0.2478163,-0.207435 -0.5992581,-0.207435 -0.3514418,0 -0.5992581,0.184387 -0.5992581,0.184387 v 1.832347 c 0,0 0.2478163,-0.178672 0.5992581,-0.178672 0.3514418,0 0.5992581,0.178672 0.5992581,0.178672 z m 1.2907096,0 v -1.809299 c 0,0 -0.2478162,-0.207435 -0.599258,-0.207435 -0.3514418,0 -0.5992581,0.184387 -0.5992581,0.184387 v 1.832347 c 0,0 0.2478163,-0.178672 0.5992581,-0.178672 0.3514418,0 0.599258,0.178672 0.599258,0.178672 z m 0.1843871,-1.64796 H 5.531168 v 1.751677 H 4.4248454 v 0.09219 H 3.9638776 v -0.09219 H 2.8575551 v -1.751677 h -0.092194 v 1.843871 h 1.1063226 v 0.09219 h 0.6510709 l -0.00572,-0.09219 h 1.1063226 z"
         id="path1-8"
         style="fill:#ffffff;stroke-width:0.0921936"
         transform="matrix(3.7795276,0,0,3.7795276,-5.8527051,-38.131843)" /></g></g></svg>
