<?xml version="1.0" encoding="UTF-8" standalone="no"?>
<!-- Created with Inkscape (http://www.inkscape.org/) -->

<svg
   width="20.377953"
   height="28.529655"
   viewBox="0 0 5.3916666 7.5484712"
   version="1.1"
   id="svg1"
   xml:space="preserve"
   xmlns="http://www.w3.org/2000/svg"
   xmlns:svg="http://www.w3.org/2000/svg"><defs
     id="defs1" /><g
     id="layer1"
     transform="translate(-7.7051172,-18.01895)"><g
       style="fill:#000091;fill-opacity:1"
       id="g8"
       transform="matrix(0.26458333,0,0,0.26458333,7.7551174,18.06895)"><path
         d="m 10,0 c 5.5228,0 10,4.47715 10,10 0,2.2519 -0.7449,4.3294 -2.001,6.001 L 10,28 2,16.001 C 0.744178,14.3295 0,12.2517 0,10 0,4.47715 4.47715,0 10,0 Z"
         fill="#aa4141"
         id="path7"
         style="fill:#000091;fill-opacity:1;stroke:#c2c2c2;stroke-width:0.377953;stroke-dasharray:none;stroke-opacity:1" /><path
         d="M 11.227773,20.053324 H 10.73168 V 19.55723 c 0,-0.09131 -0.07405,-0.165364 -0.165365,-0.165364 h -0.330729 c -0.09131,0 -0.165365,0.07405 -0.165365,0.165364 v 0.496094 H 9.5741276 c -0.09131,0 -0.165365,0.07405 -0.165365,0.165365 v 0.330729 c 0,0.09131 0.07405,0.165364 0.165365,0.165364 h 0.4960934 v 1.157552 c 0,0.09131 0.07405,0.165365 0.165365,0.165365 h 0.330729 c 0.09131,0 0.165365,-0.07405 0.165365,-0.165365 v -1.157552 h 0.496093 c 0.09131,0 0.165365,-0.07405 0.165365,-0.165364 v -0.330729 c 0,-0.09131 -0.07405,-0.165365 -0.165365,-0.165365 z"
         fill="#000000"
         id="path13"
         style="fill:#ffffff;stroke-width:0.264583"
         transform="matrix(3.7795276,0,0,3.7795276,-29.31068,-68.292095)" /></g></g></svg>
